<?xml version="1.0" standalone="no"?>
<!DOCTYPE svg PUBLIC "-//W3C//DTD SVG 20010904//EN"
 "http://www.w3.org/TR/2001/REC-SVG-20010904/DTD/svg10.dtd">
<svg version="1.0" xmlns="http://www.w3.org/2000/svg"
 width="155.000000pt" height="155.000000pt" viewBox="0 0 155.000000 155.000000"
 preserveAspectRatio="xMidYMid meet">
<metadata>
Created by potrace 1.11, written by Peter Selinger 2001-2013
</metadata>
<g transform="translate(0.000000,155.000000) scale(0.100000,-0.100000)"
fill="#000000" stroke="none">
<path d="M83 988 c1 -359 4 -526 11 -533 6 -6 29 -22 51 -35 22 -13 76 -47
120 -75 148 -96 430 -273 450 -283 17 -8 70 22 341 194 l322 205 0 524 0 525
-647 0 -648 0 0 -522z m739 130 l3 -133 128 1 127 1 1 -31 c2 -58 2 -91 0
-123 l-1 -32 -107 0 c-60 1 -118 0 -130 0 -23 -1 -23 -3 -23 -130 l0 -129 -90
1 -90 1 0 128 c0 115 -2 128 -17 129 -10 0 -69 0 -130 0 l-113 -1 0 93 0 94
118 -2 c64 0 123 1 130 3 9 3 12 39 12 133 l0 129 90 0 89 0 3 -132z"/>
</g>
</svg>
